<?xml version="1.0" encoding="UTF-8"?><svg xmlns="http://www.w3.org/2000/svg" viewBox="0 0 174.4 106.77"><defs><style>.d{fill:#ece9dd;}.e{fill:#23232c;}</style></defs><g id="a"/><g id="b"><g id="c"><path class="d" d="M99.89,2.35c16.54,.04,29.99,13.52,29.96,30.02-.03,16.46-13.59,29.98-30.06,29.97-16.48-.01-29.96-13.56-29.91-30.07,.05-16.59,13.47-29.96,30.01-29.92Z"/><path class="d" d="M57.96,2.35c16.54,.04,29.99,13.52,29.96,30.02-.03,16.46-13.59,29.98-30.06,29.97-16.48-.01-29.96-13.56-29.91-30.07,.05-16.59,13.47-29.96,30.01-29.92Z"/><path class="e" d="M142.49,.4c17.61,.05,31.94,14.4,31.91,31.97-.03,17.53-14.47,31.93-32.01,31.92-17.55-.01-31.91-14.45-31.85-32.02,.06-17.66,14.35-31.91,31.96-31.86Z"/><path class="e" d="M29.75,94.12c0,3.32-.04,6.64,.02,9.96,.03,1.87-.87,2.68-2.65,2.68-6.77,0-13.55,0-20.32,0-1.68,0-2.56-.79-2.55-2.57,.03-6.84,.02-13.68,0-20.53,0-1.66,.88-2.49,2.44-2.5,6.84-.04,13.68-.03,20.52,0,1.67,0,2.56,.84,2.55,2.6-.03,3.45,0,6.91,0,10.36Z"/><path class="e" d="M144.57,93.88c0-3.26-.01-6.51,0-9.77,0-2.19,.68-2.94,2.78-2.95,6.64-.03,13.28-.03,19.93,0,2.03,0,2.77,.76,2.78,2.75,.02,6.71-.02,13.42,.02,20.13,.01,1.85-.8,2.73-2.6,2.73-6.77,0-13.55,0-20.32,0-1.8,0-2.64-.88-2.6-2.73,.06-3.39,.02-6.78,.02-10.16Z"/><path class="e" d="M100.07,0c3.36,.7,6.74,1.29,10.06,2.13,2.22,.56,3.02,1.74,2.4,3.12-.81,1.8-2.24,1.42-3.73,.94-14.81-4.73-30.07,2.8-35.02,17.26-6.13,17.94,7.49,36.81,26.45,36.45,3-.06,6-.91,8.95-1.62,1.49-.36,2.75-.44,3.32,1.11,.62,1.68-.47,2.49-1.98,3.04-18.52,6.8-39.32-5.65-42.13-25.25C65.85,19.36,77.6,3.47,95.42,.69c1.5-.23,3.04-.22,4.57-.32l.09-.37Z"/><path class="e" d="M19.14,21.68c-5.44,0-10.89-.03-16.33,.02-1.54,.01-2.77-.44-2.81-2.07-.04-1.76,1.27-2.27,2.86-2.27,10.82,.01,21.64,0,32.46,0,1.56,0,2.89,.41,2.88,2.23,0,1.88-1.38,2.12-2.93,2.11-5.38-.03-10.75-.01-16.13-.01Z"/><path class="e" d="M19.06,34.44c-5.38,0-10.75-.03-16.13,.02C1.33,34.47,0,34.08,0,32.31c0-1.75,1.36-2.2,2.94-2.2,10.82,.02,21.64,.01,32.46,0,1.58,0,2.85,.48,2.8,2.31-.05,1.75-1.33,2.04-2.81,2.03-5.44-.03-10.89-.01-16.33-.01Z"/><path class="e" d="M19.14,47.2c-5.44,0-10.89-.03-16.33,.02-1.54,.01-2.77-.44-2.81-2.07-.04-1.76,1.27-2.27,2.86-2.27,10.82,.01,21.64,0,32.46,0,1.56,0,2.89,.41,2.88,2.23,0,1.88-1.38,2.12-2.93,2.11-5.38-.03-10.75-.01-16.13-.01Z"/><path class="e" d="M59.11,64.35c-9.12-.23-15.78-2.46-21.6-7.07-1.17-.93-1.95-1.97-.97-3.35,1.07-1.49,2.35-1.04,3.61-.08,8.02,6.13,16.84,7.64,26.43,4.5,1.5-.49,2.85-.61,3.41,1.15,.55,1.74-.58,2.61-2.11,2.95-3.47,.79-6.95,1.51-8.77,1.9Z"/><path class="e" d="M70.12,3.82c0,2.39-1.43,3.19-3.5,2.48-3.62-1.24-7.33-1.69-11.14-1.46-5.31,.31-10.05,2.12-14.35,5.2-.32,.23-.64,.47-.95,.72-1.21,1-2.49,1.49-3.6,0-1.12-1.51-.15-2.55,1.05-3.48,3.33-2.6,6.98-4.54,11.05-5.67C55.19-.19,61.65-.01,68.01,2.24c.92,.32,1.63,1.21,2.11,1.58Z"/><path class="e" d="M49.06,91.87c1.32,0,2.65-.02,3.97,0,1.32,.02,2.14,.69,2.21,2.03,.07,1.37-.8,2.18-2.04,2.22-2.84,.11-5.7,.1-8.54,0-1.25-.04-2.14-.8-2.11-2.17,.04-1.45,.93-2.11,2.34-2.11,1.39,0,2.78,0,4.17,0Z"/><path class="e" d="M74.41,91.87c1.39,0,2.78-.02,4.17,0,1.33,.03,2.13,.73,2.17,2.07,.04,1.37-.83,2.15-2.08,2.19-2.84,.1-5.7,.1-8.54,0-1.25-.04-2.12-.83-2.07-2.2,.05-1.34,.85-2.03,2.18-2.06,1.39-.03,2.78,0,4.17,0Z"/><path class="e" d="M99.76,96.18c-1.26,0-2.52,.04-3.78-.01-1.44-.06-2.47-.71-2.4-2.29,.06-1.46,1.03-2.03,2.42-2.02,2.58,.01,5.17,.02,7.75,0,1.48-.01,2.51,.56,2.5,2.14,0,1.58-1.09,2.15-2.52,2.18-1.32,.03-2.65,0-3.97,0Z"/><path class="e" d="M125.51,91.87c1.32,0,2.65,0,3.97,0,1.32,0,2.17,.62,2.29,1.96,.12,1.36-.71,2.24-1.95,2.29-2.91,.12-5.83,.12-8.74,0-1.25-.05-2.09-.89-1.99-2.26,.09-1.34,.93-1.98,2.25-1.99,1.39-.01,2.78,0,4.17,0Z"/></g></g></svg>