<?xml version="1.0" encoding="UTF-8"?><svg xmlns="http://www.w3.org/2000/svg" viewBox="0 0 113.19 115.16"><defs><style>.d{stroke:#23232c;stroke-miterlimit:10;stroke-width:5px;}.d,.e{fill:#23232c;}.f{fill:#ece9dd;}</style></defs><g id="a"/><g id="b"><g id="c"><path class="f" d="M47.24,103.32s-.73-7.48,7.16-7.36,9.24-5.2,9.24-5.2c0,0,31.5-1.48,33.04,1.38s4.04,4.74-3.7,4.71-10.56,7.09-6.67,8.24,14.67-1.6,15.83,3.62,1.85,4.78-6.93,4.78-32.51,.46-34.58-.54"/><path class="f" d="M46.05,99.8v12.03c.32-.09,.67-.15,1.05-.15,.75,0,1.38,.19,1.91,.5,.61-.83,1.59-1.4,2.94-1.4,2.69,0,3.91,2.26,3.68,4.33h17.41v-15.31h-26.99Z"/><path class="e" d="M52.8,63.28c1.98,2.91,3.07,5.84,3.01,9.02-.14,6.85-3.06,12.1-9.33,15.27-1.28,.65-2.6,1.24-3.79,2.03-2.98,1.98-3.87,5.69-2.24,8.86,1.03,2,2.52,3.56,4.38,4.81,4.01,2.69,8,5.41,11.98,8.14,1.25,.86,1.6,2.04,.74,2.9-.46,.47-1.34,.84-1.97,.77-4.36-.47-8.73-.9-13.05-1.68-9.29-1.67-18.14-4.6-26.23-9.59-5.19-3.2-9.65-7.1-12.2-12.81-3.29-7.38-2.71-14.79,.04-22.13,3.3-8.81,9.35-14.83,18.54-17.38,5.47-1.52,10.98-1.26,16.48-.09,.73,.15,1.12-.03,1.66-.49,3.91-3.3,6.39-7.74,9.41-11.74,7.05-9.34,15.33-17.44,24.59-24.58,5.88-4.54,11.67-9.19,17.5-13.79,1.46-1.15,2.18-1.1,3.52,.23,2.32,2.31,4.64,4.62,6.95,6.95,1.06,1.07,1.13,1.92,.22,3.07-6.96,8.75-13.81,17.6-20.95,26.2-6.51,7.85-14.25,14.41-22.54,20.34-2.35,1.68-4.44,3.73-6.72,5.67Zm-13-7.7c-3.56-1.07-7.05-1.22-10.57-1.14-3.95,.09-7.63,1.16-11.06,3.1-6.33,3.59-9.66,9.35-11.45,16.13-1.27,4.8-1.4,9.62,.35,14.37,2.04,5.53,6.09,9.25,10.94,12.28,7.76,4.85,16.28,7.62,25.2,9.34,1.61,.31,3.24,.55,4.86,.82l.1-.31c-1.87-1.26-3.73-2.54-5.63-3.77-2.22-1.45-3.98-3.32-5.26-5.63-2.98-5.37-1.51-11.33,3.68-14.62,1.41-.9,2.96-1.56,4.43-2.35,5.03-2.72,7.64-8.81,6.17-14.29-.76-2.83-2.82-4.72-4.62-6.86-2.1-2.49-4.36-3.37-7.65-2.96-5.95,.75-11.43,2.34-15.69,6.79-5.13,5.36-8.32,11.39-6.16,19.26l-3.47,1.39c-1.23-3.15-1.6-6.28-.86-9.41,2.53-10.66,9.1-17.6,19.59-20.75,2.23-.67,4.59-.89,7.11-1.37ZM93.82,4.59c-4.69,3.71-9.29,7.42-13.98,11.01-8.72,6.67-16.93,13.87-23.79,22.5-2.47,3.11-4.8,6.34-7.06,9.33l7.47,7.51c.12-.08,.32-.2,.51-.34,7.38-5.11,14.27-10.84,20.15-17.63,5.66-6.55,10.96-13.41,16.41-20.15,1.87-2.32,3.7-4.68,5.52-6.99l-5.23-5.25ZM53.02,57.65l-6.59-6.59-2.72,2.57c2.27,2.27,4.5,4.5,6.65,6.65l2.66-2.63Z"/><path class="e" d="M65.3,115.16v-3.83h32.98c.28,0,.56,0,.84,0,1.6-.01,2.54-.71,2.56-1.9,.02-1.2-.93-1.94-2.51-1.95-3.56,0-7.11,0-10.67,0-3.47,0-6-2.45-5.99-5.79,0-3.27,2.54-5.7,5.94-5.71,1.72,0,3.44,.01,5.16,0,1.39-.01,2.3-.78,2.32-1.9,.01-1.13-.89-1.94-2.27-1.94-9.63-.01-19.26,0-28.89-.01-.92,0-1.37,.35-1.46,1.32-.24,2.68-2.19,4.43-4.87,4.44-2.24,.01-4.48,0-6.71,0-1.64,0-1.82,.19-1.83,1.88,0,.6,0,1.19,0,1.87h-3.91c.1-1.44,.02-2.9,.35-4.25,.5-2.05,2.34-3.31,4.45-3.32,2.4-.02,4.8-.02,7.19,0,.97,.01,1.45-.33,1.54-1.36,.22-2.6,2.19-4.39,4.79-4.39,9.91-.01,19.82-.01,29.73,0,3.26,0,5.75,2.55,5.74,5.79-.01,3.17-2.52,5.67-5.72,5.7-1.8,.02-3.6-.01-5.4,0-1.39,.01-2.3,.78-2.3,1.91,0,1.13,.9,1.92,2.29,1.93,3.64,.02,7.27,0,10.91,0,3.47,0,5.99,2.46,5.97,5.8-.02,3.26-2.55,5.69-5.96,5.7-11.07,0-22.14,0-33.21,0h-1.06Z"/><path class="e" d="M25.45,32.52c1.39,1.73,2.77,3.43,4.14,5.15,1.22,1.53,1.36,3.01,.45,4.41-.88,1.34-2.29,1.83-4.09,1.42-1.94-.45-3.89-.86-5.81-1.38-.85-.23-1.36-.13-1.83,.7-1,1.77-2.11,3.48-3.19,5.21-.98,1.56-2.39,2.2-3.94,1.84-1.58-.37-2.58-1.66-2.75-3.51-.16-1.79-.39-3.57-.51-5.36-.06-.94-.48-1.29-1.38-1.4-1.3-.16-2.6-.39-3.88-.7-1.48-.35-2.48-1.53-2.63-2.92-.17-1.57,.54-2.93,2.01-3.61,1.48-.68,3-1.3,4.52-1.88,.74-.28,1.04-.64,.98-1.49-.16-2.07-.19-4.15-.27-6.23-.07-1.91,.7-3.28,2.19-3.89,1.5-.61,2.86-.24,4.19,1.17,1.45,1.54,2.9,3.08,4.3,4.68,.5,.57,.9,.72,1.61,.39,1.37-.64,2.78-1.19,4.19-1.76,1.72-.7,3.35-.37,4.36,.87,1.09,1.32,1.1,2.91,0,4.53-.86,1.25-1.74,2.48-2.64,3.76Zm-13.95-9.08l-.29,.08c.08,1.82,.16,3.64,.25,5.46,.14,2.9-.44,3.82-3.1,4.94-1.04,.44-2.07,.89-3.43,1.47,1.42,.26,2.46,.45,3.51,.64,1.84,.34,2.85,1.3,3.11,3.13,.27,1.92,.45,3.85,.71,6.1,1.21-1.94,2.25-3.62,3.31-5.3,1.16-1.84,2.33-2.32,4.45-1.83,1.92,.44,3.84,.87,6.11,1.39-1.33-1.65-2.43-3-3.52-4.36-1.43-1.8-1.48-3.24-.17-5.11,.53-.77,1.07-1.53,1.61-2.29-1.19,.18-2.21,.6-3.22,1.02-2.56,1.06-3.65,.82-5.5-1.2-1.27-1.38-2.54-2.75-3.81-4.13Z"/><path class="e" d="M74.89,84.46c-3.2,0-6.39,.01-9.59,0-3.29-.01-5.8-2.5-5.81-5.72,0-3.24,2.49-5.77,5.76-5.77,6.39-.01,12.79-.01,19.18,0,3.27,0,5.76,2.54,5.75,5.78,0,3.17-2.5,5.69-5.7,5.72-3.2,.02-6.39,0-9.59,0Zm.07-7.67c-3.07,0-6.14,0-9.21,0-1.49,0-2.41,.75-2.42,1.91,0,1.16,.92,1.92,2.4,1.93,2.67,.01,5.34,0,8.02,0,3.43,0,6.86,.01,10.29,0,1.42,0,2.38-.88,2.3-2.03-.08-1.09-.94-1.8-2.28-1.81-3.03-.02-6.06,0-9.09,0Z"/><path class="e" d="M99.76,72.96c3.23,0,5.77,2.55,5.76,5.77,0,3.21-2.57,5.74-5.8,5.73-3.2-.01-5.71-2.59-5.7-5.83,.01-3.14,2.57-5.67,5.74-5.66Zm.02,7.66c.99,0,1.91-.94,1.9-1.92-.01-.99-.93-1.9-1.92-1.9-.99,0-1.91,.93-1.9,1.92,0,.99,.94,1.91,1.92,1.9Z"/><path class="e" d="M113.19,94.12c-.02,3.2-2.6,5.72-5.84,5.69-3.19-.03-5.68-2.62-5.66-5.87,.02-3.13,2.6-5.64,5.78-5.63,3.22,.02,5.74,2.58,5.72,5.81Zm-3.84,0c.04-.98-.86-1.93-1.85-1.97-.99-.03-1.93,.85-1.97,1.85-.04,.98,.85,1.93,1.85,1.97,.98,.04,1.93-.86,1.97-1.85Z"/><path class="e" d="M32.64,13.49v-3.77h3.8v3.77l.04-.03h-3.87l.04,.03Z"/><path class="e" d="M32.64,17.29h-3.77v-3.8h3.77l-.04-.03v3.87l.03-.04Z"/><path class="e" d="M36.44,13.49h3.77v3.8h-3.76l.03,.04v-3.87l-.04,.03Z"/><path class="e" d="M36.44,17.29v3.77h-3.8v-3.77l-.03,.04h3.87l-.03-.04Z"/><path class="e" d="M40.24,36.45h-3.69v-3.71h3.69v3.71Z"/><path class="f" d="M39.81,55.58c-2.53,.47-4.88,.7-7.11,1.37-10.48,3.14-17.06,10.09-19.59,20.75-.74,3.14-.38,6.26,.86,9.41l3.47-1.39c-2.17-7.86,1.02-13.9,6.16-19.26,4.26-4.45,9.74-6.04,15.69-6.79,3.29-.41,5.55,.47,7.65,2.96,1.81,2.14,3.86,4.03,4.62,6.86,1.47,5.48-1.15,11.56-6.17,14.29-1.47,.8-3.03,1.46-4.43,2.35-5.18,3.3-6.66,9.25-3.68,14.62,1.28,2.31,3.04,4.19,5.26,5.63,1.89,1.23,3.75,2.51,5.63,3.77l-.1,.31c-1.62-.27-3.24-.51-4.86-.82-8.91-1.72-17.44-4.49-25.2-9.34-4.85-3.03-8.9-6.76-10.94-12.28-1.75-4.75-1.62-9.57-.35-14.37,1.79-6.79,5.12-12.55,11.45-16.13,3.43-1.94,7.1-3.01,11.06-3.1,3.52-.08,7.01,.07,10.57,1.14Zm.53,26.88c5.59,.31,9.98-5.26,9.4-9.44h-3.65c-.43,3.44-2.36,5.33-5.75,5.74v3.69Zm-20.27,12.74l2.56-2.46-3.7-3.77-2.49,2.59,3.63,3.64Z"/><path class="d" d="M93.82,4.59l5.23,5.25c-1.82,2.31-3.64,4.67-5.52,6.99-5.44,6.74-10.74,13.6-16.41,20.15-5.87,6.79-12.76,12.51-20.15,17.63-.19,.13-.39,.26-.51,.34l-7.47-7.51c2.26-3,4.59-6.22,7.06-9.33,6.85-8.63,15.07-15.82,23.79-22.5,4.69-3.59,9.28-7.31,13.98-11.01Z"/><path class="f" d="M53.02,57.65l-2.66,2.63c-2.15-2.15-4.39-4.39-6.65-6.65l2.72-2.57,6.59,6.59Z"/><path class="f" d="M11.5,23.44c1.27,1.38,2.55,2.75,3.81,4.13,1.85,2.02,2.94,2.26,5.5,1.2,1.01-.42,2.02-.83,3.22-1.02-.54,.76-1.07,1.53-1.61,2.29-1.3,1.87-1.26,3.31,.17,5.11,1.09,1.36,2.19,2.72,3.52,4.36-2.27-.52-4.19-.95-6.11-1.39-2.12-.49-3.29-.01-4.45,1.83-1.05,1.67-2.1,3.35-3.31,5.3-.26-2.25-.44-4.18-.71-6.1-.26-1.83-1.27-2.79-3.11-3.13-1.04-.19-2.09-.38-3.51-.64,1.36-.58,2.39-1.03,3.43-1.47,2.66-1.13,3.24-2.04,3.1-4.94-.09-1.82-.16-3.64-.25-5.46l.29-.08Z"/><path class="f" d="M74.96,76.79c3.03,0,6.06-.01,9.09,0,1.34,0,2.2,.72,2.28,1.81,.08,1.15-.87,2.02-2.3,2.03-3.43,.02-6.86,0-10.29,0-2.67,0-5.34,0-8.02,0-1.48,0-2.4-.77-2.4-1.93,0-1.16,.93-1.9,2.42-1.91,3.07-.01,6.14,0,9.21,0Z"/><path class="f" d="M99.78,80.62c-.98,0-1.91-.91-1.92-1.9,0-.99,.91-1.92,1.9-1.92,.99,0,1.91,.9,1.92,1.9,.01,.98-.91,1.91-1.9,1.92Z"/><path class="f" d="M109.36,94.11c-.04,1-.99,1.89-1.97,1.85-1-.04-1.89-.98-1.85-1.97,.04-1,.98-1.89,1.97-1.85,.99,.03,1.89,.98,1.85,1.97Z"/><path class="e" d="M36.48,17.33h-3.87v-3.87h3.87v3.87Z"/><path d="M40.34,82.46v-3.69c3.4-.42,5.33-2.3,5.75-5.74h3.65c.58,4.17-3.81,9.75-9.4,9.44Z"/><path d="M20.08,95.2l-3.63-3.64,2.49-2.59,3.7,3.77-2.56,2.46Z"/></g></g></svg>