<?xml version="1.0" encoding="UTF-8"?><svg xmlns="http://www.w3.org/2000/svg" viewBox="0 0 120.63 114.96"><defs><style>.d{fill:#ece9dd;}.e{fill:#23232c;}</style></defs><g id="a"/><g id="b"><g id="c"><rect class="e" x="14.61" y="36.29" width="56.73" height="55.81"/><rect class="e" x="68.61" y="35.1" width="39.49" height="31.16"/><rect class="e" x="3.57" y="35.1" width="12.66" height="52.69"/><g><path class="e" d="M120.63,88.11c-.84,1.83-1.96,3.75-4.08,3.76-3.13,.02-2.62,2.73-3.71,4.24-.08,.12,.16,.55,.34,.77,2.33,2.74,2.24,5.51-.27,8.04-.89,.89-1.76,1.8-2.67,2.66-2.18,2.07-5.22,2.13-7.42,.08-.6-.56-1.07-.66-1.72-.23-.16,.11-.35,.19-.53,.24-1.77,.47-2.89,1.24-3.12,3.42-.24,2.34-2.56,3.84-4.95,3.87-1.37,.02-2.75,0-4.12,0-3.2,0-5.42-2.06-5.59-5.27-.04-.76-.29-1.08-.98-1.32-1.1-.38-2.17-.88-3.32-1.35-1.28,1.38-2.84,2.35-4.84,2.05-.9-.14-1.92-.39-2.59-.95-1.53-1.28-2.99-2.68-4.26-4.21-1.66-2.01-1.43-4.84,.39-6.77,.54-.57,.69-.96,.28-1.7-.56-1.02-.92-2.16-1.41-3.34-.76,0-1.58,0-2.4,0-5.77,0-11.54,0-17.31,0-1.36,0-2.3-.71-2.52-1.84-.23-1.18,.29-2.31,1.36-2.7,.5-.18,1.07-.2,1.61-.2,3.89-.02,7.77,0,11.66,0h1.42c0-1.51,0-2.91,0-4.31,.01-3.53,1.96-5.62,5.48-5.95,.36-.03,.84-.36,1-.68,.54-1.13,.96-2.31,1.45-3.54-1.23-1.14-2.13-2.51-2.11-4.34,.01-1.41,.44-2.63,1.41-3.63,1.09-1.13,2.18-2.27,3.33-3.33,2.12-1.96,5.11-1.96,7.24,.02,.58,.54,.98,.66,1.71,.27,1.03-.56,2.15-.93,3.27-1.39,.05-.6,.03-1.23,.15-1.84,.47-2.32,2.16-4,4.58-4.25,1.82-.19,3.7-.21,5.52-.02,2.83,.29,4.61,2.3,4.79,5.22,.04,.72,.27,1.07,.93,1.21,.23,.05,.46,.13,.66,.24,1.62,.89,3.18,1.51,4.68-.29,.3-.36,.98-.46,1.51-.57,.53-.11,1.08-.09,1.69-.13v-23.74H4.81c-.02,.43-.05,.81-.05,1.19,0,13.74,0,27.48,0,41.23,0,1.87,.33,3.66,1.3,5.3,1.31,2.2,3.18,3.37,5.79,3.35,4.36-.03,8.72-.03,13.07,0,1.91,.01,3.05,1.62,2.37,3.25-.4,.95-1.15,1.48-2.2,1.48-4.91,0-9.82,.09-14.72-.04-4.17-.11-8.19-3.6-9.6-8.2-.44-1.44-.72-2.99-.72-4.5C0,57.14-.03,34.91,.04,12.69,.06,7.34,2.33,3.12,7.36,.8,8.46,.29,9.78,.04,11,.03,41,0,70.99,0,100.99,0c4.48,0,8.6,3.13,10.16,7.93,.59,1.83,.89,3.84,.9,5.76,.07,16.14,.05,32.27,.02,48.41,0,.93,.22,1.6,.9,2.27,2.46,2.43,2.49,5.32,.23,7.96-.22,.26-.2,.78-.18,1.18,0,.25,.24,.49,.31,.75,.51,1.8,1.28,3.01,3.53,3.2,2,.16,3.06,1.98,3.76,3.81v6.83Zm-13.53-56.79c.07-.18,.12-.25,.12-.32,0-6.4,.12-12.8-.05-19.2-.11-4.31-3.23-7.07-7.5-7.07-16.41,0-32.82,0-49.24,0-12.84,0-25.68,.02-38.52-.01-2.72,0-4.63,1.22-5.95,3.51-.9,1.57-1.21,3.3-1.21,5.09,0,5.61,0,11.23,0,16.84,0,.37,0,.75,0,1.16H107.1Zm-.43,73.27c.56-.63,1.05-1.24,1.59-1.79q1.99-2.02,.03-4.03c-1.26-1.3-1.27-2-.44-3.67,.83-1.68,1.59-3.4,2.18-5.18,.71-2.13,1.14-2.57,3.41-2.56,2.73,0,2.44,.16,2.45-2.5q0-2.86-2.81-2.9c-1.68-.03-2.33-.62-2.89-2.19-.67-1.87-1.39-3.74-2.27-5.52-.91-1.85-.92-2.51,.52-3.96q1.85-1.86,.02-3.69t-3.95,0c-1.27,1.23-2.1,1.25-3.69,.47-1.79-.87-3.63-1.66-5.51-2.28-1.82-.61-2.41-1.22-2.42-3.2q-.01-2.5-2.47-2.5-2.85,0-2.91,2.79c-.04,1.77-.59,2.33-2.29,2.92-1.84,.64-3.65,1.4-5.39,2.26-1.7,.85-2.51,.82-3.88-.51-2.15-2.1-1.56-2.15-3.71-.03q-1.95,1.93,0,3.93c1.25,1.28,1.29,2.08,.52,3.68-.84,1.76-1.63,3.55-2.26,5.39-.62,1.83-1.22,2.41-3.19,2.42q-2.54,.01-2.54,2.55,0,2.82,2.76,2.84c1.8,.02,2.39,.57,2.96,2.23,.63,1.84,1.36,3.66,2.22,5.41,.88,1.78,.86,2.54-.55,3.96-2.08,2.1-2.07,1.55-.03,3.62q1.98,2,4.02,.01c1.24-1.21,2.04-1.25,3.58-.49,1.68,.83,3.39,1.63,5.16,2.22,2.33,.77,2.74,1.18,2.75,3.64,.01,2.4-.35,2.27,2.28,2.27q3.01,0,3.11-3.01c.05-1.58,.58-2.22,2.09-2.71,1.48-.49,3.06-.86,4.38-1.64,3.31-1.95,3.71-1.67,6.19,.91,.23,.24,.53,.43,1.01,.82Z"/><path class="d" d="M53.02,61.64c-1.85-2.09-3.75-4.22-5.63-6.36-.75-.85-.89-1.82-.29-2.82,.6-1,1.54-1.36,2.62-1.07,.53,.15,1.05,.54,1.43,.95,2.09,2.29,4.15,4.61,6.19,6.93,1.47,1.68,1.48,3.24,0,4.93-2.04,2.33-4.1,4.64-6.18,6.95-1.12,1.25-2.55,1.4-3.62,.44-1.09-.98-1.07-2.35,.07-3.64,1.78-2.03,3.58-4.06,5.36-6.09,.02-.02,.02-.07,.05-.22Z"/><path class="d" d="M18.73,61.75c1.87,2.1,3.64,4.09,5.41,6.08,1.2,1.35,1.26,2.74,.18,3.74-1.12,1.03-2.53,.83-3.78-.57-1.99-2.22-3.97-4.44-5.94-6.68-1.6-1.81-1.61-3.31-.04-5.11,2.04-2.33,4.1-4.64,6.17-6.94,1.04-1.16,2.51-1.3,3.54-.4,1.06,.93,1.1,2.35,.05,3.55-1.83,2.09-3.68,4.16-5.6,6.32Z"/><path class="d" d="M33.54,73.97c-1.52-.02-2.66-1.37-2.31-2.87,1.54-6.55,3.1-13.1,4.68-19.64,.35-1.45,1.64-2.24,2.91-1.92,1.34,.34,2.07,1.54,1.73,3-1.52,6.48-3.05,12.95-4.61,19.41-.32,1.33-1.21,2.02-2.4,2Z"/><path class="e" d="M35.58,92.1c-1.31-.04-2.38-1.16-2.33-2.46,.05-1.33,1.12-2.31,2.5-2.27,1.33,.03,2.4,1.15,2.35,2.44-.06,1.31-1.18,2.33-2.51,2.29Z"/><path class="d" d="M107.1,31.32H4.76c0-.41,0-.78,0-1.16,0-5.61,0-11.23,0-16.84,0-1.79,.31-3.52,1.21-5.09,1.31-2.29,3.23-3.51,5.95-3.51,12.84,.03,25.68,.01,38.52,.01,16.41,0,32.82,0,49.24,0,4.26,0,7.39,2.76,7.5,7.07,.16,6.4,.05,12.8,.05,19.2,0,.07-.05,.14-.12,.32Zm-25.93-5.18c3.37,0,6.75,0,10.12,0,.08,0,.16,0,.24,0,4.64-.03,8.14-3.42,8.17-7.92,.03-4.54-3.49-8.04-8.16-8.06-6.9-.03-13.8-.03-20.71,0-4.57,.02-8.14,3.55-8.14,7.99,0,4.46,3.55,7.96,8.13,7.98,3.45,.02,6.9,0,10.35,0Zm-30.5-7.99c0-4.43-3.58-8.01-8-7.99-4.32,.02-7.94,3.62-7.98,7.95-.04,4.36,3.6,8.02,7.99,8.03,4.44,0,7.99-3.54,7.98-7.99Zm-36.58,0c0,4.44,3.55,8,7.98,7.99,4.4,0,8.02-3.65,7.98-8.03-.04-4.36-3.62-7.93-7.96-7.95-4.4-.02-8,3.57-8.01,7.99Z"/><path class="d" d="M106.66,104.59c-.48-.39-.77-.57-1.01-.82-2.48-2.59-2.89-2.87-6.19-.91-1.32,.78-2.9,1.15-4.38,1.64-1.5,.49-2.04,1.13-2.09,2.71q-.1,3.01-3.11,3.01c-2.63,0-2.26,.13-2.28-2.27-.01-2.46-.43-2.87-2.75-3.64-1.77-.59-3.48-1.39-5.16-2.22-1.54-.76-2.34-.72-3.58,.49q-2.03,1.98-4.02-.01c-2.04-2.07-2.05-1.52,.03-3.62,1.41-1.42,1.43-2.18,.55-3.96-.86-1.75-1.59-3.57-2.22-5.41-.57-1.66-1.15-2.22-2.96-2.23q-2.76-.03-2.76-2.84,0-2.54,2.54-2.55c1.98,0,2.58-.58,3.19-2.42,.62-1.84,1.42-3.64,2.26-5.39,.77-1.6,.73-2.4-.52-3.68q-1.94-1.99,0-3.93c2.15-2.12,1.56-2.07,3.71,.03,1.37,1.33,2.18,1.36,3.88,.51,1.74-.87,3.55-1.63,5.39-2.26,1.7-.59,2.26-1.14,2.29-2.92q.06-2.79,2.91-2.79,2.46,0,2.47,2.5c0,1.98,.6,2.59,2.42,3.2,1.88,.63,3.72,1.42,5.51,2.28,1.59,.77,2.43,.75,3.69-.47q2.01-1.94,3.95,0t-.02,3.69c-1.43,1.44-1.43,2.11-.52,3.96,.88,1.78,1.6,3.65,2.27,5.52,.56,1.57,1.22,2.16,2.89,2.19q2.81,.04,2.81,2.9c0,2.66,.28,2.5-2.45,2.5-2.28,0-2.71,.43-3.41,2.56-.59,1.77-1.35,3.5-2.18,5.18-.83,1.68-.82,2.38,.44,3.67q1.97,2.02-.03,4.03c-.55,.55-1.03,1.16-1.59,1.79Zm-16.35-34.49c-7.96-.04-14.55,6.51-14.59,14.49-.04,7.89,6.52,14.53,14.4,14.57,8.02,.04,14.65-6.44,14.7-14.38,.05-8.07-6.45-14.64-14.51-14.68Z"/><path class="e" d="M81.17,26.14c-3.45,0-6.9,.02-10.35,0-4.58-.03-8.13-3.52-8.13-7.98,0-4.44,3.57-7.97,8.14-7.99,6.9-.03,13.8-.03,20.71,0,4.67,.02,8.19,3.52,8.16,8.06-.03,4.5-3.53,7.89-8.17,7.92-.08,0-.16,0-.24,0-3.37,0-6.75,0-10.12,0Zm.12-11.13h0c-3.41-.01-6.83-.03-10.24,0-2.14,0-3.51,1.22-3.56,3.08-.05,1.85,1.31,3.25,3.4,3.27,6.86,.04,13.73,.02,20.59,0,.53,0,1.1-.13,1.59-.33,1.31-.55,2.08-2.04,1.82-3.36-.3-1.54-1.44-2.61-3.02-2.63-3.53-.04-7.06-.01-10.59-.01Z"/><path class="e" d="M50.67,18.15c0,4.44-3.54,7.99-7.98,7.99-4.39,0-8.03-3.67-7.99-8.03,.04-4.33,3.66-7.93,7.98-7.95,4.41-.02,7.99,3.56,8,7.99Zm-11.12,0c0,1.76,1.35,3.14,3.1,3.18,1.76,.04,3.26-1.42,3.27-3.17,0-1.76-1.45-3.17-3.26-3.15-1.78,.02-3.11,1.37-3.11,3.14Z"/><path class="e" d="M14.09,18.14c0-4.42,3.61-8.01,8.01-7.99,4.34,.02,7.91,3.6,7.96,7.95,.04,4.38-3.58,8.02-7.98,8.03-4.43,0-7.99-3.55-7.98-7.99Zm7.93-3.14c-1.76,.01-3.15,1.39-3.16,3.13-.01,1.76,1.47,3.23,3.23,3.2,1.73-.02,3.14-1.43,3.15-3.16,.01-1.8-1.4-3.19-3.22-3.17Z"/><path class="e" d="M90.32,70.11c8.06,.04,14.55,6.61,14.51,14.68-.05,7.94-6.68,14.42-14.7,14.38-7.88-.04-14.44-6.68-14.4-14.57,.04-7.98,6.63-14.52,14.59-14.49Zm9.68,14.56c.03-5.34-4.27-9.73-9.55-9.76-5.42-.04-9.84,4.25-9.88,9.57-.04,5.49,4.22,9.83,9.68,9.87,5.37,.05,9.73-4.28,9.75-9.68Z"/></g><rect class="e" x="3.13" y="32.29" width="104.97" height="14.64"/></g></g></svg>