<?xml version="1.0" encoding="UTF-8"?><svg xmlns="http://www.w3.org/2000/svg" viewBox="0 0 112.31 112.31"><defs><style>.d{fill:#fff;}.e{fill:#ece9dd;}.f,.g{fill:#23232c;}.g{stroke:#23232c;stroke-miterlimit:10;stroke-width:7px;}</style></defs><g id="a"/><g id="b"><g id="c"><polyline class="e" points="26 71.45 47.17 46.91 57.11 59.18 66.47 45.83 86.59 73.44 86.59 84.31 25.3 83.85"/><g><path class="f" d="M93.59,5.81c0-1.21-.02-2.3,0-3.39,.03-1.48,.93-2.41,2.42-2.41,4.64-.02,9.28-.02,13.92,0,1.42,0,2.35,.94,2.36,2.35,.02,4.64,.02,9.28,0,13.92,0,1.49-.93,2.39-2.4,2.43-.55,.02-1.09,0-1.64,0-.54,0-1.09,0-1.8,0v1.17c0,9.08,0,18.17-.01,27.25,0,.78,.18,1.19,.98,1.56,3.2,1.47,4.91,4.03,4.86,7.58-.05,3.49-1.8,5.97-4.96,7.41-.61,.28-.89,.54-.89,1.26,.03,9.32,.02,18.64,.02,27.96,0,.19,.02,.38,.04,.71,1.11,0,2.19-.01,3.27,0,1.63,.02,2.53,.91,2.53,2.54,.01,4.56,.01,9.12,0,13.69,0,1.56-.92,2.47-2.47,2.48-4.6,.02-9.2,.02-13.8,0-1.49,0-2.4-.93-2.42-2.4-.02-1.87,0-3.74,0-5.78h-1.17c-9.08,0-18.17,0-27.25-.01-.78,0-1.19,.18-1.56,.98-1.47,3.19-4.02,4.92-7.57,4.87-3.49-.05-5.96-1.81-7.41-4.96-.28-.61-.54-.89-1.26-.88-9.28,.03-18.56,.02-27.84,.02-.23,0-.45,.02-.82,.04,0,1.82,0,3.6,0,5.38,0,1.94-.83,2.76-2.78,2.76-4.41,0-8.81,0-13.22,0-1.86,0-2.71-.85-2.71-2.71,0-4.44,0-8.89,0-13.33,0-1.79,.86-2.65,2.64-2.66,1.01,0,2.02,0,3.2,0v-1.17c0-9.08,0-18.17,.01-27.25,0-.79-.18-1.19-.98-1.56C1.74,62.16,.02,59.66,.02,56.15c0-3.5,1.73-5.98,4.85-7.48,.59-.28,1-.48,1-1.3-.04-9.28-.02-18.56-.02-27.84,0-.23-.02-.45-.04-.82-1.12,0-2.2,.01-3.28,0-1.63-.02-2.52-.91-2.53-2.54C0,11.61,0,7.05,.01,2.49,.02,.92,.92,.02,2.48,.01,7.08,0,11.68,0,16.28,.01c1.49,0,2.39,.93,2.42,2.41,.02,1.09,0,2.18,0,3.44h1.17c9.08,0,18.17,0,27.25,.01,.79,0,1.19-.19,1.55-.98C50.14,1.74,52.65,.03,56.15,.02c3.5,0,5.98,1.73,7.48,4.85,.28,.59,.48,1.01,1.3,1,9.32-.04,18.64-.02,27.95-.03,.19,0,.38-.02,.71-.04ZM10.57,18.71c-.02,.34-.04,.53-.04,.72,0,9.32,.01,18.63-.03,27.95,0,.83,.43,1,1.02,1.29,3.12,1.51,4.85,4,4.84,7.49,0,3.49-1.72,6.02-4.88,7.45-.81,.37-.97,.79-.97,1.56,.02,9.08,.01,18.17,.01,27.25v1.16c2.01,0,3.84-.01,5.67,0,1.62,.01,2.5,.91,2.52,2.55,.01,1.08,0,2.15,0,3.21,.27,.04,.38,.08,.49,.08,9.43,0,18.87,0,28.3,.03,.73,0,.88-.39,1.12-.91,1.47-3.14,3.93-4.9,7.42-4.94,3.55-.04,6.1,1.68,7.57,4.87,.37,.81,.78,.97,1.56,.97,9.08-.02,18.17-.01,27.25-.01h1.16c0-1.15,0-2.12,0-3.09,0-1.94,.83-2.75,2.78-2.76,1.78,0,3.56,0,5.36,0,.02-.34,.04-.53,.04-.72,0-9.32,0-18.63,.02-27.95,0-.72-.29-.97-.89-1.25-3.15-1.45-4.91-3.91-4.95-7.41-.04-3.55,1.68-6.1,4.87-7.57,.8-.37,.97-.78,.97-1.56-.02-9.08-.01-18.17-.01-27.25v-1.16c-1.93,0-3.68,0-5.43,0-1.93,0-2.75-.83-2.76-2.78,0-1.78,0-3.56,0-5.36-.34-.02-.53-.04-.72-.04-9.32,0-18.63,.01-27.95-.03-.82,0-1.01,.43-1.29,1.01-1.51,3.12-3.99,4.85-7.49,4.84-3.5,0-6.01-1.72-7.45-4.87-.37-.81-.79-.97-1.56-.97-9.08,.02-18.17,.01-27.25,.01h-1.16c0,2.01,.01,3.84,0,5.66-.01,1.62-.91,2.51-2.55,2.52-1.83,.01-3.65,0-5.59,0ZM4.76,4.73V13.95H13.98V4.73H4.76ZM98.32,13.96h9.22V4.74h-9.22V13.96ZM13.97,107.57v-9.23H4.76v9.23H13.97Zm93.57,.06v-9.27h-9.22v9.23c.24,.02,.43,.04,.62,.04,2.84,0,5.68,0,8.6,0ZM59.66,8.2c0-1.85-1.64-3.51-3.5-3.51-1.85,0-3.51,1.64-3.51,3.5,0,1.85,1.65,3.51,3.5,3.51,1.85,0,3.51-1.64,3.51-3.5ZM8.22,59.66c1.86-.02,3.5-1.69,3.48-3.54-.02-1.86-1.69-3.5-3.54-3.48-1.86,.02-3.5,1.69-3.48,3.54,.02,1.85,1.69,3.5,3.54,3.48Zm95.89,0c1.85,0,3.51-1.64,3.51-3.5,0-1.85-1.64-3.51-3.5-3.51-1.85,0-3.51,1.64-3.51,3.5,0,1.85,1.65,3.51,3.5,3.52Zm-48,38.61c-1.86,.03-3.49,1.7-3.46,3.55,.03,1.86,1.71,3.5,3.55,3.46,1.86-.03,3.5-1.71,3.46-3.55-.03-1.86-1.7-3.49-3.55-3.46Z"/><path class="e" d="M4.76,4.73H13.98V13.95H4.76V4.73Z"/><path class="e" d="M98.32,13.96V4.74h9.22V13.96h-9.22Z"/><path class="e" d="M13.97,107.57H4.76v-9.23H13.97v9.23Z"/><path class="e" d="M107.55,107.63c-2.92,0-5.76,0-8.6,0-.19,0-.37-.02-.62-.04v-9.23h9.22v9.27Z"/><path class="d" d="M59.66,8.2c0,1.85-1.66,3.5-3.51,3.5-1.85,0-3.5-1.67-3.5-3.51,0-1.86,1.66-3.5,3.51-3.5,1.86,0,3.5,1.66,3.5,3.51Z"/><path class="e" d="M8.22,59.66c-1.84,.02-3.51-1.62-3.54-3.48-.02-1.85,1.62-3.51,3.48-3.54,1.85-.02,3.51,1.62,3.54,3.48,.02,1.85-1.62,3.51-3.48,3.54Z"/><path class="e" d="M104.11,59.66c-1.85,0-3.5-1.67-3.5-3.52,0-1.86,1.66-3.5,3.51-3.5,1.86,0,3.5,1.66,3.5,3.51,0,1.85-1.66,3.5-3.51,3.5Z"/><path class="e" d="M56.11,98.27c1.85-.03,3.52,1.6,3.55,3.46,.03,1.84-1.6,3.52-3.46,3.55-1.84,.03-3.52-1.61-3.55-3.46-.03-1.84,1.6-3.52,3.46-3.55Z"/><path class="f" d="M56.17,23.4c9.94,0,19.88,0,29.82,0,2.12,0,2.91,.78,2.91,2.86,0,19.14,0,38.28,0,57.42,0,2.1-.78,2.88-2.89,2.88-19.92,0-39.84,0-59.76,0-2.04,0-2.85-.8-2.85-2.8,0-19.18,0-38.36,0-57.53,0-2.02,.81-2.82,2.83-2.82,9.98,0,19.96,0,29.94,0Zm-28.04,42.28c.44-.52,.77-.89,1.07-1.27,5.13-6.43,10.25-12.86,15.39-19.28,1.47-1.84,2.93-1.84,4.4-.02,2.1,2.61,4.18,5.24,6.27,7.86,.28,.35,.58,.68,.92,1.07,2.39-2.99,4.66-5.86,6.96-8.71,1.7-2.12,3.06-2.11,4.77,.03,5.08,6.36,10.16,12.73,15.24,19.1,.29,.37,.6,.72,1.01,1.21V28.15H28.13v37.53Zm56.05,9.27H28.17v6.88h56.01v-6.88Zm-53.48-4.86H62.84c-5.39-6.78-10.69-13.44-16.04-20.17-5.41,6.79-10.7,13.42-16.09,20.17Zm50.98,.1c-5.48-6.87-10.78-13.51-16.17-20.27l-6.31,7.91c3.14,3.94,6.21,7.81,9.31,11.66,.26,.32,.73,.66,1.1,.67,3.93,.05,7.86,.03,12.07,.03Z"/><path class="g" d="M28.13,65.68V28.15h56.04v37.53c-.41-.49-.72-.85-1.01-1.21-5.08-6.37-10.16-12.74-15.24-19.1-1.71-2.14-3.07-2.15-4.77-.03-2.29,2.85-4.57,5.72-6.96,8.71-.34-.4-.64-.72-.92-1.07-2.09-2.62-4.17-5.25-6.27-7.86-1.47-1.82-2.93-1.82-4.4,.02-5.14,6.42-10.26,12.85-15.39,19.28-.3,.38-.63,.75-1.07,1.27Z"/><path class="e" d="M84.18,74.95v6.88H28.17v-6.88h56.01Z"/><path class="e" d="M30.7,70.09c5.39-6.75,10.68-13.39,16.09-20.17,5.35,6.73,10.64,13.39,16.04,20.17H30.7Z"/><path class="e" d="M81.69,70.2c-4.21,0-8.14,.02-12.07-.03-.38,0-.84-.35-1.1-.67-3.1-3.85-6.17-7.72-9.31-11.66l6.31-7.91c5.39,6.76,10.69,13.4,16.17,20.27Z"/></g></g></g></svg>