<?xml version="1.0" encoding="UTF-8"?><svg xmlns="http://www.w3.org/2000/svg" viewBox="0 0 117.78 117.76"><defs><style>.e{fill:#ece9dd;}.f{fill:#23232c;}</style></defs><g id="a"/><g id="b"><g id="c"><polyline class="f" points="18.17 18.47 18.97 72.63 98.98 72.65 98.98 20.08"/><polyline class="e" points="70.45 37.76 53.41 54.76 46.91 46.92 22.14 72.26 99.69 73.6 99.69 61.93 79.04 42.9"/><path class="e" d="M46.8,29.49s-4.7,5.81-1.7,6.91,8.81,1.06,8.81-1.72-4.91-6.99-4.91-6.99"/><rect class="e" x="98.98" y="18.47" width="16.28" height="55.12"/><rect class="e" x="3.09" y="19.7" width="16.57" height="54.89"/><g id="d"><g><path class="f" d="M58.92,0c16.25,0,32.51,0,48.76,0,4.8,0,8.45,2.69,9.72,7.21,.25,.91,.36,1.89,.36,2.83,.02,24.26,.02,48.52,.01,72.78,0,5.88-4.18,10.08-10.04,10.08-32.55,0-65.09,0-97.64,0-5.89,0-10.09-4.17-10.09-10.04C0,58.61,0,34.35,0,10.09,0,4.16,4.2,0,10.16,0,26.42,0,42.67,0,58.92,0ZM26.33,71.61H96.99c0-2.12-.04-4.14,.02-6.16,.03-.89-.27-1.49-.89-2.1-8.26-8.22-16.49-16.47-24.74-24.71-.29-.29-.6-.56-.94-.88-2.7,2.69-5.33,5.31-7.97,7.92-.6,.59-1.17,1.23-1.83,1.74-1.4,1.07-3,.56-3.61-1.07-.45-1.2,.13-2.05,.93-2.85,3.42-3.41,6.83-6.83,10.25-10.24,1.77-1.77,2.75-1.76,4.54,.02,7.75,7.75,15.51,15.5,23.26,23.25,.28,.28,.59,.55,.97,.9V21.02H20.81v49.01c.52-.23,.79-.61,1.11-.94,7.67-7.68,15.34-15.35,23.01-23.01,1.6-1.6,2.69-1.58,4.31-.01,1.78,1.73,3.6,3.43,5.38,5.17,.99,.96,2.01,1.91,2.86,2.98,1.06,1.34,.62,2.95-.91,3.6-1.12,.48-2.07,.11-2.9-.74-2.14-2.18-4.3-4.35-6.37-6.44-7.07,7.06-14.02,14.02-20.97,20.96ZM4.69,21v50.7h11.33V21H4.69Zm108.39,50.7V21.04h-11.34v50.66h11.34Zm-92.2,4.78v11.67h15.31v-11.67h-15.31Zm35.55,11.71v-11.67h-15.31v11.67h15.31Zm20.24,0v-11.67h-15.31v11.67h15.31Zm20.24,0v-11.65h-15.29v11.65h15.29ZM20.83,16.17h15.35V4.76h-15.35v11.4Zm35.59,.04V4.77h-15.31v11.44h15.31Zm20.23-.02V4.75h-15.31v11.44h15.31Zm4.95-11.47v11.44h15.31V4.72h-15.31ZM4.68,76.5c0,.6,0,1.06,0,1.51,0,1.72-.07,3.45,.03,5.16,.14,2.43,1.55,4.48,3.59,4.76,2.51,.34,5.07,.3,7.66,.42v-11.85H4.68Zm97.18,0v11.73c2.13,0,4.15,.08,6.17-.02,2.44-.12,4.49-1.54,4.76-3.58,.35-2.66,.3-5.37,.43-8.12h-11.36ZM4.72,16.17H15.95V4.74c-2.25,0-4.44-.18-6.58,.04-2.85,.3-4.34,1.82-4.61,4.68-.2,2.19-.04,4.42-.04,6.71Zm108.35,.09c0-2.37,.11-4.59-.03-6.79-.13-2.1-1.19-3.76-3.28-4.4-2.6-.8-5.27-.24-7.91-.41v11.6h11.22Z"/><path class="f" d="M41.93,110.39c-.49,4.35-3.18,7.11-7.03,7.35-3.98,.24-6.68-2.26-7.84-7.35-2.04,0-4.1,0-6.17,0-1.84,0-3.68,0-5.52,0-1.83,0-2.97-.91-2.94-2.33,.03-1.39,1.12-2.26,2.89-2.26,3.49,0,6.98,0,10.46,0h1.34c.2-2.5,1.15-4.56,3.18-6,1.38-.98,2.95-1.44,4.65-1.34,3.77,.23,6.27,2.83,7.01,7.34h1.33c16.6,0,33.19,0,49.79,0,.57,0,1.16,.04,1.69,.22,.91,.32,1.38,1.05,1.39,2.03,.01,.98-.43,1.73-1.34,2.07-.55,.21-1.2,.25-1.8,.25-16.56,.01-33.12,.01-49.67,.01h-1.44Zm-4.67-2.33c0-.76,.04-1.53,0-2.29-.09-1.5-1.19-2.63-2.6-2.71-1.26-.08-2.58,.86-2.71,2.27-.17,1.81-.18,3.66-.02,5.46,.13,1.47,1.5,2.44,2.78,2.32,1.43-.13,2.48-1.25,2.56-2.76,.04-.76,0-1.53,0-2.29Z"/><path class="f" d="M105.34,108.11c0,1.18-1.12,2.29-2.3,2.28-1.18,0-2.28-1.12-2.28-2.3,0-1.19,1.11-2.28,2.3-2.27,1.19,0,2.28,1.11,2.28,2.3Z"/><path class="e" d="M20.87,76.48h15.31v11.67h-15.31v-11.67Z"/><path class="e" d="M56.42,88.19h-15.31v-11.67h15.31v11.67Z"/><path class="e" d="M76.67,88.19h-15.31v-11.67h15.31v11.67Z"/><path class="e" d="M96.9,88.18h-15.29v-11.65h15.29v11.65Z"/><path class="e" d="M20.83,16.17V4.76h15.35v11.4h-15.35Z"/><path class="e" d="M56.42,16.21h-15.31V4.77h15.31v11.44Z"/><path class="e" d="M76.65,16.19h-15.31V4.75h15.31v11.44Z"/><path class="e" d="M81.6,4.72h15.31v11.44h-15.31V4.72Z"/><path class="e" d="M4.68,76.5H15.96v11.85c-2.59-.12-5.15-.08-7.66-.42-2.04-.28-3.45-2.32-3.59-4.76-.1-1.71-.03-3.44-.03-5.16,0-.46,0-.91,0-1.51Z"/><path class="e" d="M101.86,76.5h11.36c-.13,2.75-.08,5.46-.43,8.12-.27,2.04-2.32,3.46-4.76,3.58-2.02,.1-4.05,.02-6.17,.02v-11.73Z"/><path class="e" d="M4.72,16.17c0-2.29-.16-4.52,.04-6.71,.27-2.85,1.75-4.37,4.61-4.68,2.15-.23,4.33-.04,6.58-.04v11.43H4.72Z"/><path class="e" d="M113.06,16.26h-11.22V4.66c2.63,.17,5.31-.39,7.91,.41,2.09,.64,3.15,2.3,3.28,4.4,.14,2.2,.03,4.42,.03,6.79Z"/><path class="e" d="M37.26,108.07c0,.76,.03,1.53,0,2.29-.08,1.52-1.13,2.63-2.56,2.76-1.28,.12-2.65-.86-2.78-2.32-.16-1.81-.15-3.66,.02-5.46,.13-1.41,1.45-2.35,2.71-2.27,1.41,.09,2.51,1.21,2.6,2.71,.05,.76,0,1.53,0,2.29Z"/><path class="f" d="M56.18,32.97c0,4.1-3.26,7.33-7.37,7.31-4.02-.02-7.27-3.25-7.34-7.28-.06-3.94,3.37-7.41,7.36-7.43,4.01-.02,7.35,3.34,7.34,7.39Zm-7.35-2.58c-1.49,.01-2.57,1.13-2.55,2.64,.02,1.41,1.15,2.54,2.55,2.56,1.42,.02,2.64-1.19,2.64-2.62,0-1.46-1.15-2.59-2.64-2.58Z"/><path d="M61.2,63.53c-1.34,.02-2.34-.93-2.37-2.25-.02-1.38,1-2.47,2.31-2.47,1.3,0,2.42,1.12,2.42,2.42,0,1.26-1.04,2.28-2.36,2.3Z"/></g></g></g></g></svg>