<?xml version="1.0" encoding="UTF-8"?><svg xmlns="http://www.w3.org/2000/svg" viewBox="0 0 397.75 26"><defs><style>.d{fill:none;stroke:#e6654b;stroke-miterlimit:10;stroke-width:6px;}</style></defs><g id="a"/><g id="b"><g id="c"><path class="d" d="M0,3c14.2,0,14.2,20,28.41,20S42.61,3,56.82,3s14.2,20,28.41,20S99.43,3,113.63,3s14.21,20,28.41,20,14.2-20,28.4-20,14.2,20,28.41,20,14.2-20,28.41-20,14.21,20,28.41,20,14.21-20,28.41-20,14.21,20,28.41,20,14.21-20,28.41-20,14.21,20,28.42,20,14.21-20,28.42-20"/></g></g></svg>