<?xml version="1.0" encoding="UTF-8"?><svg xmlns="http://www.w3.org/2000/svg" viewBox="0 0 1675.98 218.2"><defs><style>.d{fill:#e35c42;}</style></defs><g id="a"/><g id="b"><g id="c"><path class="d" d="M1675.98,.14V218.2H0V38.02c1.23,.62,2.49,1.2,3.67,1.92,30,18.07,59.94,36.23,91.1,52.28,32.86,16.94,66.57,31.87,102.45,41.39,17.52,4.64,35.29,8.16,53.27,10.35,18.4,2.24,36.85,4.13,55.3,5.86,14,1.31,28.05,1.96,42.05,3.23,15.57,1.4,31.1,3.12,46.64,4.8,13.72,1.47,27.43,3.03,41.14,4.62,21.17,2.45,42.41,4.18,63.73,4.06,11.14-.06,22.3-.61,33.42-1.4,30.05-2.15,58.39-11.57,86.7-20.96,18.54-6.15,37.05-12.35,56.1-16.8,17.65-4.12,35.49-6.54,53.67-5.29,16.74,1.16,32.69,5.53,48.06,12.21,20.74,9.02,40.1,20.53,59.5,32.02,19.17,11.35,38.11,23.12,58.45,32.4,14.91,6.81,30.33,11.94,46.62,13.92,12.35,1.5,24.73,1.14,37.09-.59,28.12-3.93,54.29-13.98,80.2-24.94,23.34-9.88,46.55-20.12,70.08-29.55,25.85-10.37,52.64-18.06,79.31-26.03,29.45-8.8,58.96-17.43,87.67-28.5,29.51-11.37,57.97-25.08,86.51-38.63,27.79-13.18,55.51-26.54,84.39-37.27,21.69-8.06,43.86-14.51,66.72-18.26,15.4-2.52,30.86-5.02,46.4-6.29,18.48-1.52,37.07-1.9,55.62-2.4,12.99-.35,25.99-.03,38.99-.1,.42,0,.8,.01,1.13,.07Z"/></g></g></svg>