<?xml version="1.0" encoding="UTF-8"?><svg xmlns="http://www.w3.org/2000/svg" viewBox="0 0 1673.89 86.54"><defs><style>.e{fill:#e35c42;}</style></defs><g id="a"/><g id="b"><g id="c"><g id="d"><path class="e" d="M1673.89,0V49.92c-6.81,.57-13.6,1.25-20.41,1.85-15.83,1.39-31.67,2.75-47.5,4.13-18.4,1.6-36.79,3.34-55.21,4.78-15.02,1.18-30.05,2.2-45.1,2.95-23.2,1.17-46.41,2.6-69.63,2.94-32.81,.49-65.63,.22-98.45,0-11.9-.08-23.81-.69-35.68-1.48-18.85-1.24-37.69-2.68-56.5-4.33-12.76-1.12-25.5-2.55-38.2-4.18-16.25-2.07-32.48-4.31-48.67-6.77-21.37-3.25-42.7-6.74-64.04-10.21-18.46-3-36.9-6.17-55.37-9.15-19.61-3.16-39.23-6.28-58.88-9.25-13.48-2.05-26.99-3.95-40.51-5.66-13.7-1.73-27.42-3.31-41.16-4.65-13.58-1.33-27.18-2.45-40.8-3.36-11.79-.78-23.61-1.32-35.42-1.66-13.74-.39-27.49-.77-41.22-.57-17.4,.26-34.79,1-52.18,1.75-11.47,.49-22.94,1.22-34.39,2.12-14.02,1.11-28.02,2.41-42.01,3.81-14.32,1.43-28.64,2.95-42.92,4.65-14.95,1.79-29.86,3.8-44.79,5.78-17.64,2.34-35.27,4.71-52.9,7.14-22.16,3.05-44.3,6.24-66.46,9.23-20.85,2.82-41.72,5.51-62.59,8.13-22.61,2.85-45.23,5.67-67.86,8.3-19,2.2-38.04,4.15-57.06,6.15-18.78,1.98-37.56,3.94-56.35,5.81-16.4,1.62-32.8,3.1-49.2,4.65-18.72,1.77-37.44,3.59-56.16,5.31-15.66,1.44-31.33,2.77-47,4.14-16.43,1.44-32.85,2.86-49.27,4.27V0H1673.89Z"/></g></g></g></svg>